<svg width="144" height="34" viewBox="0 0 144 34" fill="none" xmlns="http://www.w3.org/2000/svg">
<path d="M17.8877 18.4167C17.5277 14.0537 13.8726 10.625 9.41675 10.625C4.72233 10.625 0.916748 14.4306 0.916748 19.125C0.916748 23.8194 4.72233 27.625 9.41675 27.625H22.1667V18.4167H17.8877Z" fill="#528BFF"/>
<ellipse cx="21.4585" cy="17" rx="10.625" ry="10.625" fill="#7839EE"/>
<path d="M38.3848 17.1417C38.3848 15.7269 38.6558 14.4906 39.1979 13.4328C39.7533 12.3618 40.54 11.5354 41.5581 10.9537C42.5894 10.3719 43.7993 10.081 45.1876 10.081C46.2718 10.081 47.2437 10.2925 48.1031 10.7157C48.9625 11.1388 49.6567 11.7338 50.1856 12.5007C50.7145 13.2675 51.0318 14.1534 51.1376 15.1583H48.1626C47.9907 14.365 47.6271 13.7435 47.0718 13.294C46.5297 12.8312 45.8487 12.5998 45.0289 12.5998C43.9183 12.5998 43.039 13.0163 42.3911 13.8493C41.7432 14.6823 41.4193 15.7798 41.4193 17.1417C41.4193 18.4903 41.7432 19.5878 42.3911 20.434C43.039 21.267 43.9183 21.6835 45.0289 21.6835C45.8487 21.6835 46.5297 21.4587 47.0718 21.0092C47.6271 20.5464 47.9907 19.9183 48.1626 19.125H51.1376C51.0318 20.1299 50.7145 21.0158 50.1856 21.7827C49.6567 22.5495 48.9625 23.1445 48.1031 23.5677C47.2437 23.9908 46.2718 24.2023 45.1876 24.2023C43.7993 24.2023 42.5894 23.9114 41.5581 23.3297C40.54 22.7479 39.7533 21.9281 39.1979 20.8703C38.6558 19.7993 38.3848 18.5564 38.3848 17.1417Z" fill="white"/>
<path d="M51.8545 10.2H54.651V24.0833H51.8545V10.2Z" fill="white"/>
<path d="M60.7847 24.2023C59.7137 24.2023 58.7683 23.9908 57.9485 23.5677C57.1419 23.1313 56.5139 22.5165 56.0643 21.7232C55.628 20.9298 55.4098 20.0175 55.4098 18.9862C55.4098 17.9548 55.628 17.0425 56.0643 16.2492C56.5139 15.4558 57.1419 14.8476 57.9485 14.4245C58.7683 13.9882 59.7137 13.77 60.7847 13.77C61.8557 13.77 62.7944 13.9882 63.601 14.4245C64.4208 14.8476 65.0488 15.4558 65.4852 16.2492C65.9347 17.0425 66.1595 17.9548 66.1595 18.9862C66.1595 20.0307 65.9347 20.9497 65.4852 21.743C65.0488 22.5231 64.4208 23.1313 63.601 23.5677C62.7944 23.9908 61.8557 24.2023 60.7847 24.2023ZM60.7847 21.9215C61.5648 21.9215 62.1796 21.6504 62.6292 21.1083C63.0919 20.5662 63.3233 19.8588 63.3233 18.9862C63.3233 18.1135 63.0919 17.4061 62.6292 16.864C62.1796 16.3219 61.5648 16.0508 60.7847 16.0508C60.0178 16.0508 59.4029 16.3219 58.9402 16.864C58.4906 17.4061 58.2658 18.1135 58.2658 18.9862C58.2658 19.8588 58.4906 20.5662 58.9402 21.1083C59.4029 21.6504 60.0178 21.9215 60.7847 21.9215Z" fill="white"/>
<path d="M76.5047 13.889V24.0833H74.0256L73.7677 22.8537C73.4107 23.2768 72.9942 23.6073 72.5182 23.8453C72.0422 24.0833 71.4605 24.2023 70.7729 24.2023C69.5829 24.2023 68.6111 23.8387 67.8574 23.1115C67.1037 22.371 66.7269 21.1414 66.7269 19.4225V13.889H69.5234V19.0853C69.5234 20.0109 69.6821 20.7117 69.9994 21.1877C70.33 21.6504 70.8324 21.8818 71.5067 21.8818C72.2075 21.8818 72.7496 21.624 73.1331 21.1083C73.5165 20.5794 73.7082 19.8456 73.7082 18.9068V13.889H76.5047Z" fill="white"/>
<path d="M87.85 10.2V24.0833H85.4105L85.1329 22.6752C84.3527 23.6933 83.295 24.2023 81.9595 24.2023C81.0604 24.2023 80.2539 23.9908 79.5399 23.5677C78.8259 23.1313 78.2639 22.5165 77.854 21.7232C77.4574 20.9298 77.259 20.0109 77.259 18.9663C77.259 17.935 77.4574 17.0293 77.854 16.2492C78.2639 15.4558 78.8259 14.8476 79.5399 14.4245C80.2671 13.9882 81.0802 13.77 81.9794 13.77C83.3016 13.77 84.3263 14.2328 85.0535 15.1583V10.2H87.85ZM82.614 21.9215C83.3677 21.9215 83.9693 21.657 84.4189 21.1282C84.8684 20.586 85.0932 19.8787 85.0932 19.006C85.0932 18.1201 84.8684 17.4061 84.4189 16.864C83.9693 16.3219 83.3677 16.0508 82.614 16.0508C81.8604 16.0508 81.2521 16.3219 80.7894 16.864C80.3398 17.4061 80.115 18.1135 80.115 18.9862C80.115 19.8588 80.3398 20.5662 80.7894 21.1083C81.2521 21.6504 81.8604 21.9215 82.614 21.9215Z" fill="white"/>
<path d="M88.2131 10.2L91.2872 10.1802L93.8457 20.3348L96.5629 10.2H99.2404L101.878 20.3348L104.496 10.2H107.511L103.663 24.0833H100.232L97.8322 14.8608L95.4919 24.0833H92.0607L88.2131 10.2Z" fill="white"/>
<path d="M116.842 21.7232V24.0833H115.414C114.132 24.0833 113.504 23.528 113.53 22.4173C113.16 22.9991 112.704 23.442 112.162 23.7462C111.62 24.0503 110.965 24.2023 110.198 24.2023C109.061 24.2023 108.142 23.9445 107.441 23.4288C106.754 22.8999 106.41 22.1595 106.41 21.2075C106.41 20.1233 106.807 19.2903 107.6 18.7085C108.407 18.1135 109.57 17.816 111.091 17.816H113.114V17.3202C113.114 16.8574 112.942 16.4938 112.598 16.2293C112.254 15.9517 111.792 15.8128 111.21 15.8128C110.694 15.8128 110.271 15.9252 109.94 16.15C109.61 16.3748 109.412 16.6789 109.345 17.0623H106.648C106.741 16.0178 107.203 15.2112 108.036 14.6427C108.869 14.0609 109.974 13.77 111.349 13.77C112.79 13.77 113.901 14.0873 114.681 14.722C115.474 15.3567 115.871 16.2756 115.871 17.4788V21.0687C115.871 21.3199 115.924 21.4918 116.029 21.5843C116.135 21.6769 116.3 21.7232 116.525 21.7232H116.842ZM113.114 19.6803H111.071C110.489 19.6803 110.033 19.7993 109.702 20.0373C109.385 20.2621 109.226 20.586 109.226 21.0092C109.226 21.3662 109.359 21.6504 109.623 21.862C109.901 22.0735 110.271 22.1793 110.734 22.1793C111.461 22.1793 112.036 21.9744 112.459 21.5645C112.882 21.1414 113.101 20.5794 113.114 19.8787V19.6803Z" fill="white"/>
<path d="M117.785 16.2492H116.1V13.889H117.785V11.033H120.582V13.889H122.902V16.2492H120.582V20.7117C120.582 21.0687 120.655 21.3265 120.8 21.4852C120.959 21.6438 121.217 21.7232 121.574 21.7232H123.021V24.0833H120.701C118.757 24.0833 117.785 23.1115 117.785 21.1678V16.2492Z" fill="white"/>
<path d="M133.05 20.2158C132.865 21.4587 132.336 22.4372 131.463 23.1512C130.604 23.8519 129.486 24.2023 128.111 24.2023C127.054 24.2023 126.128 23.9908 125.335 23.5677C124.541 23.1313 123.927 22.5165 123.49 21.7232C123.067 20.9298 122.856 20.0175 122.856 18.9862C122.856 17.9416 123.067 17.0293 123.49 16.2492C123.927 15.4558 124.541 14.8476 125.335 14.4245C126.141 13.9882 127.073 13.77 128.131 13.77C129.493 13.77 130.604 14.1204 131.463 14.8212C132.323 15.5087 132.852 16.4673 133.05 17.697H130.154C130.035 17.1945 129.797 16.7979 129.44 16.507C129.083 16.2029 128.64 16.0508 128.111 16.0508C127.384 16.0508 126.802 16.3219 126.366 16.864C125.93 17.4061 125.712 18.1135 125.712 18.9862C125.712 19.8588 125.93 20.5662 126.366 21.1083C126.802 21.6504 127.384 21.9215 128.111 21.9215C128.653 21.9215 129.103 21.7694 129.46 21.4653C129.83 21.1612 130.068 20.7447 130.174 20.2158H133.05Z" fill="white"/>
<path d="M139.581 13.77C140.784 13.77 141.77 14.1402 142.536 14.8807C143.317 15.6211 143.707 16.8442 143.707 18.5498V24.0833H140.91V18.6688C140.91 17.8226 140.738 17.1813 140.394 16.745C140.051 16.2954 139.535 16.0707 138.847 16.0707C138.133 16.0707 137.571 16.3153 137.162 16.8045C136.765 17.2937 136.567 17.9747 136.567 18.8473V24.0833H133.77V10.2H136.567V15.1385C137.32 14.2262 138.325 13.77 139.581 13.77Z" fill="white"/>
</svg>
