<svg width="121" height="34" viewBox="0 0 121 34" fill="none" xmlns="http://www.w3.org/2000/svg">
<path fill-rule="evenodd" clip-rule="evenodd" d="M15.5833 32.5834C24.1898 32.5834 31.1667 25.6065 31.1667 17C31.1667 8.39359 24.1898 1.41669 15.5833 1.41669C6.97688 1.41669 0 8.39359 0 17C0 25.6065 6.97688 32.5834 15.5833 32.5834ZM20.4448 8.67606C20.6814 7.83551 19.8657 7.33846 19.1208 7.8692L8.7213 15.2777C7.91338 15.8533 8.04046 17 8.91219 17H11.6507V16.9788H16.9878L12.639 18.5132L10.7219 25.324C10.4853 26.1646 11.3009 26.6616 12.0459 26.1308L22.4454 18.7224C23.2533 18.1468 23.1261 17 22.2545 17H18.1017L20.4448 8.67606Z" fill="#155EEF"/>
<path d="M39.2274 24.019V21.554H41.1824V11.609H39.2274V9.144H46.8774C47.7841 9.144 48.5703 9.29983 49.2362 9.6115C49.9162 9.909 50.4403 10.3411 50.8087 10.9077C51.1912 11.4602 51.3824 12.1261 51.3824 12.9052V13.1177C51.3824 13.7977 51.2549 14.3573 50.9999 14.7965C50.7449 15.2215 50.4403 15.5544 50.0862 15.7952C49.7462 16.0219 49.4203 16.1848 49.1087 16.284V16.6665C49.4203 16.7515 49.7603 16.9144 50.1287 17.1552C50.497 17.3819 50.8087 17.7148 51.0637 18.154C51.3328 18.5932 51.4674 19.1669 51.4674 19.8752V20.0877C51.4674 20.9094 51.2762 21.6177 50.8937 22.2127C50.5112 22.7936 49.9799 23.2398 49.2999 23.5515C48.6341 23.8632 47.8549 24.019 46.9624 24.019H39.2274ZM43.9874 21.469H46.6224C47.2316 21.469 47.7203 21.3202 48.0887 21.0227C48.4712 20.7252 48.6624 20.3002 48.6624 19.7477V19.5352C48.6624 18.9827 48.4782 18.5577 48.1099 18.2602C47.7416 17.9627 47.2457 17.814 46.6224 17.814H43.9874V21.469ZM43.9874 15.264H46.5799C47.1607 15.264 47.6353 15.1152 48.0037 14.8177C48.3862 14.5202 48.5774 14.1094 48.5774 13.5852V13.3727C48.5774 12.8344 48.3932 12.4236 48.0249 12.1402C47.6566 11.8427 47.1749 11.694 46.5799 11.694H43.9874V15.264Z" fill="white"/>
<path d="M57.8012 24.3165C56.7529 24.3165 55.8108 24.104 54.975 23.679C54.1392 23.254 53.4804 22.6377 52.9987 21.8302C52.5171 21.0227 52.2762 20.0523 52.2762 18.919V18.579C52.2762 17.4457 52.5171 16.4752 52.9987 15.6677C53.4804 14.8602 54.1392 14.244 54.975 13.819C55.8108 13.394 56.7529 13.1815 57.8012 13.1815C58.8496 13.1815 59.7917 13.394 60.6275 13.819C61.4633 14.244 62.1221 14.8602 62.6037 15.6677C63.0854 16.4752 63.3262 17.4457 63.3262 18.579V18.919C63.3262 20.0523 63.0854 21.0227 62.6037 21.8302C62.1221 22.6377 61.4633 23.254 60.6275 23.679C59.7917 24.104 58.8496 24.3165 57.8012 24.3165ZM57.8012 21.9365C58.6229 21.9365 59.3029 21.6744 59.8412 21.1502C60.3796 20.6119 60.6487 19.8469 60.6487 18.8552V18.6427C60.6487 17.6511 60.3796 16.8932 59.8412 16.369C59.3171 15.8307 58.6371 15.5615 57.8012 15.5615C56.9796 15.5615 56.2996 15.8307 55.7612 16.369C55.2229 16.8932 54.9537 17.6511 54.9537 18.6427V18.8552C54.9537 19.8469 55.2229 20.6119 55.7612 21.1502C56.2996 21.6744 56.9796 21.9365 57.8012 21.9365Z" fill="white"/>
<path d="M64.7352 24.019V9.144H67.4127V24.019H64.7352Z" fill="white"/>
<path d="M73.3547 24.019C72.6606 24.019 72.0939 23.8065 71.6547 23.3815C71.2297 22.9423 71.0172 22.3615 71.0172 21.639V15.689H68.3822V13.479H71.0172V10.2065H73.6947V13.479H76.5847V15.689H73.6947V21.1715C73.6947 21.5965 73.8931 21.809 74.2897 21.809H76.3297V24.019H73.3547Z" fill="white"/>
<path d="M82.3234 24.3165C80.9492 24.3165 79.823 24.019 78.9447 23.424C78.0663 22.829 77.5351 21.979 77.3509 20.874L79.8159 20.2365C79.9151 20.7323 80.078 21.1219 80.3047 21.4052C80.5455 21.6886 80.8359 21.894 81.1759 22.0215C81.5301 22.1348 81.9126 22.1915 82.3234 22.1915C82.9467 22.1915 83.4072 22.0852 83.7047 21.8727C84.0022 21.6461 84.1509 21.3698 84.1509 21.044C84.1509 20.7182 84.0092 20.4702 83.7259 20.3002C83.4426 20.1161 82.9892 19.9673 82.3659 19.854L81.7709 19.7477C81.0342 19.6061 80.3613 19.4148 79.7522 19.174C79.143 18.919 78.6542 18.5719 78.2859 18.1327C77.9176 17.6936 77.7334 17.1269 77.7334 16.4327C77.7334 15.3844 78.1159 14.584 78.8809 14.0315C79.6459 13.4648 80.6517 13.1815 81.8984 13.1815C83.0742 13.1815 84.0517 13.4436 84.8309 13.9677C85.6101 14.4919 86.1201 15.179 86.3609 16.029L83.8747 16.794C83.7613 16.2557 83.5276 15.8732 83.1734 15.6465C82.8334 15.4198 82.4084 15.3065 81.8984 15.3065C81.3884 15.3065 80.9988 15.3986 80.7297 15.5827C80.4605 15.7527 80.3259 15.9936 80.3259 16.3052C80.3259 16.6452 80.4676 16.9002 80.7509 17.0702C81.0342 17.2261 81.4167 17.3465 81.8984 17.4315L82.4934 17.5377C83.2867 17.6794 84.0022 17.8707 84.6397 18.1115C85.2913 18.3382 85.8013 18.6711 86.1697 19.1102C86.5522 19.5352 86.7434 20.1161 86.7434 20.8527C86.7434 21.9577 86.3397 22.8148 85.5322 23.424C84.7388 24.019 83.6692 24.3165 82.3234 24.3165Z" fill="white"/>
<path d="M88.0272 24.019V9.144H90.7047V14.7752H91.0872C91.2005 14.5486 91.3776 14.3219 91.6185 14.0952C91.8593 13.8686 92.178 13.6844 92.5747 13.5427C92.9855 13.3869 93.5026 13.309 94.126 13.309C94.9476 13.309 95.663 13.5002 96.2722 13.8827C96.8955 14.2511 97.3772 14.7682 97.7172 15.434C98.0572 16.0857 98.2272 16.8507 98.2272 17.729V24.019H95.5497V17.9415C95.5497 17.1482 95.3514 16.5532 94.9547 16.1565C94.5722 15.7598 94.0197 15.5615 93.2972 15.5615C92.4755 15.5615 91.838 15.8377 91.3847 16.3902C90.9314 16.9286 90.7047 17.6865 90.7047 18.664V24.019H88.0272Z" fill="white"/>
<path d="M100.059 24.019V13.479H102.737V24.019H100.059ZM101.398 12.2465C100.916 12.2465 100.505 12.0907 100.165 11.779C99.8396 11.4673 99.6767 11.0565 99.6767 10.5465C99.6767 10.0365 99.8396 9.62566 100.165 9.314C100.505 9.00233 100.916 8.8465 101.398 8.8465C101.894 8.8465 102.305 9.00233 102.63 9.314C102.956 9.62566 103.119 10.0365 103.119 10.5465C103.119 11.0565 102.956 11.4673 102.63 11.779C102.305 12.0907 101.894 12.2465 101.398 12.2465Z" fill="white"/>
<path d="M106.384 24.019V15.689H103.706V13.479H106.384V11.524C106.384 10.8015 106.596 10.2277 107.021 9.80275C107.46 9.36358 108.027 9.144 108.721 9.144H111.484V11.354H109.656C109.26 11.354 109.061 11.5665 109.061 11.9915V13.479H111.824V15.689H109.061V24.019H106.384Z" fill="white"/>
<path d="M116.664 24.019C115.97 24.019 115.403 23.8065 114.964 23.3815C114.539 22.9423 114.327 22.3615 114.327 21.639V15.689H111.692V13.479H114.327V10.2065H117.004V13.479H119.894V15.689H117.004V21.1715C117.004 21.5965 117.202 21.809 117.599 21.809H119.639V24.019H116.664Z" fill="white"/>
</svg>
