<svg width="117" height="34" viewBox="0 0 117 34" fill="none" xmlns="http://www.w3.org/2000/svg">
<path d="M21.4151 12.75C21.4151 17.8961 17.2433 22.0678 12.0972 22.0678C6.95116 22.0678 2.77942 17.8961 2.77942 12.75C2.77942 7.60393 6.95116 3.43219 12.0972 3.43219C17.2433 3.43219 21.4151 7.60393 21.4151 12.75Z" stroke="#7839EE" stroke-width="4.03101"/>
<path d="M27.0817 21.25C27.0817 26.3961 22.91 30.5678 17.7639 30.5678C12.6178 30.5678 8.44605 26.3961 8.44605 21.25C8.44605 16.1039 12.6178 11.9322 17.7639 11.9322C22.91 11.9322 27.0817 16.1039 27.0817 21.25Z" stroke="#7839EE" stroke-width="4.03101"/>
<path d="M37.562 24.019H40.7708V9.14402H37.562V24.019Z" fill="white"/>
<path d="M42.1786 24.019H45.1536V18.154C45.1536 16.7728 46.0673 15.774 47.3636 15.774C48.5961 15.774 49.4248 16.709 49.4248 18.0053V24.019H52.3998V17.3465C52.3998 14.8815 50.8273 13.139 48.4048 13.139C46.9386 13.139 45.7486 13.7553 45.1536 14.7965V13.309H42.1786V24.019Z" fill="white"/>
<path d="M54.5542 10.1428V13.309H52.493V15.774H54.5542V20.1303C54.5542 22.6165 56.148 24.019 58.613 24.019H60.3767V21.5328H59.0167C58.0605 21.5328 57.508 21.044 57.508 20.0028V15.774H60.3767V13.309H57.508V10.1428H54.5542Z" fill="white"/>
<path d="M67.8838 20.3853C67.65 21.299 66.8638 21.7665 65.6738 21.7665C64.1863 21.7665 63.23 20.8315 63.0175 19.3228H70.71C70.7313 19.089 70.7525 18.7703 70.7525 18.3665C70.7525 15.9228 69.2438 13.139 65.4613 13.139C61.8275 13.139 60.17 15.9228 60.17 18.6428C60.17 21.3415 62.04 24.189 65.6738 24.189C68.3088 24.189 70.3488 22.7015 70.7738 20.3853H67.8838ZM65.4613 15.3065C66.885 15.3065 67.7138 16.2628 67.7988 17.4528H63.06C63.315 15.9653 64.1225 15.3065 65.4613 15.3065Z" fill="white"/>
<path d="M78.1864 15.774V13.309H76.9751C75.6789 13.309 74.8714 13.7553 74.2976 15.094V13.309H71.3226V24.019H74.2976V18.8128C74.2976 16.9853 74.9564 15.774 76.4226 15.774H78.1864Z" fill="white"/>
<path d="M78.6686 24.019H81.6224V8.65527H78.6686V24.019Z" fill="white"/>
<path d="M87.9939 24.189C91.2877 24.189 93.6464 21.8515 93.6464 18.664C93.6464 15.4765 91.2877 13.139 87.9939 13.139C84.7002 13.139 82.3414 15.4765 82.3414 18.664C82.3414 21.8515 84.7002 24.189 87.9939 24.189ZM87.9939 21.639C86.4002 21.639 85.3164 20.4278 85.3164 18.664C85.3164 16.879 86.4002 15.6678 87.9939 15.6678C89.5877 15.6678 90.6714 16.879 90.6714 18.664C90.6714 20.4278 89.5877 21.639 87.9939 21.639Z" fill="white"/>
<path d="M99.1721 24.189C101.956 24.189 104.166 22.404 104.485 20.024H101.467C101.255 20.9803 100.383 21.639 99.2996 21.639C97.6846 21.639 96.7283 20.4065 96.7283 18.664C96.7283 16.9215 97.6633 15.6678 99.2571 15.6678C100.341 15.6678 101.255 16.369 101.425 17.3253H104.4C104.208 14.839 101.977 13.139 99.1721 13.139C95.8571 13.139 93.6471 15.5403 93.6471 18.664C93.6471 21.7878 95.8571 24.189 99.1721 24.189Z" fill="white"/>
<path d="M112.298 24.019H115.868L111.257 17.5165L115.528 13.309H111.788L108.069 16.964V8.65527H105.094V24.019H108.069V20.6615L109.259 19.4928L112.298 24.019Z" fill="white"/>
</svg>
