<svg width="142" height="34" viewBox="0 0 142 34" fill="none" xmlns="http://www.w3.org/2000/svg">
<path d="M8.49222 3.17719L12.1391 16.7874V1.82405C12.4282 1.75657 12.7205 1.69714 13.0156 1.64601V16.7888L17.1174 1.48077C17.413 1.50753 17.7062 1.54255 17.9968 1.58559L13.862 17.0169L22.0809 2.7813C22.3487 2.90175 22.6124 3.02955 22.8719 3.16443L14.6223 17.4532L26.3996 5.67581C26.612 5.8766 26.8186 6.08331 27.0194 6.29566L15.2403 18.0747L29.5308 9.82416C29.6656 10.0836 29.7934 10.3474 29.9138 10.6152L15.6817 18.8321L31.1088 14.6984C31.1519 14.989 31.1869 15.2822 31.2136 15.5778L15.9058 19.6795L31.0481 19.6795C30.997 19.9746 30.9375 20.2669 30.87 20.5561L15.9034 20.5561L29.5163 24.2036C29.3765 24.4713 29.2291 24.7345 29.0745 24.9927L15.6804 21.4038L26.8676 27.8627C26.6558 28.0805 26.4377 28.2921 26.2136 28.4973L15.2431 22.1635L23.5443 30.4647C23.2817 30.6181 23.0142 30.764 22.7422 30.9022L14.6224 22.7824L19.9426 31.9972C19.6513 32.0796 19.3565 32.1537 19.0586 32.2192L13.8625 23.2194L16.3677 32.569C16.1444 32.5785 15.9199 32.5833 15.6943 32.5833C15.6173 32.5833 15.5404 32.5828 15.4636 32.5817L13.0156 23.4455V32.354C12.7205 32.3029 12.4282 32.2434 12.1391 32.1759V23.447L9.98057 31.5025C9.70526 31.394 9.43378 31.2778 9.1664 31.1543L11.292 23.2213L7.30178 30.1326C7.05475 29.9744 6.81247 29.8095 6.57521 29.638L10.5341 22.781L4.98995 28.3251C4.7776 28.1243 4.5709 27.9177 4.3701 27.7053L9.9125 22.1629L3.05748 26.1207C2.88595 25.8834 2.72094 25.6412 2.56271 25.3942L9.4773 21.402L1.54038 23.5287C1.41684 23.2613 1.30066 22.9899 1.19209 22.7146L9.24763 20.5561L0.518543 20.5561C0.451046 20.2669 0.391601 19.9746 0.340458 19.6795L9.24527 19.6795L0.11266 17.2324C0.111529 17.1551 0.110962 17.0776 0.110962 17C0.110962 16.775 0.115732 16.551 0.125177 16.3283L9.47603 18.8339L0.474777 13.637C0.540319 13.339 0.614388 13.0443 0.696716 12.753L9.91527 18.0753L1.79208 9.95211C1.93028 9.68005 2.07623 9.41259 2.22964 9.15002L10.5342 17.4546L4.19788 6.47975C4.40305 6.25566 4.61469 6.03759 4.8325 5.82583L11.2926 17.015L7.70308 3.61886C7.96137 3.46427 8.22451 3.31696 8.49222 3.17719Z" fill="#27DAA4"/>
<path d="M41.0868 24.019H44.4783V18.1285H51.2415V15.1337H44.4783V12.6148H51.6778V9.63983H41.0868V24.019Z" fill="white"/>
<path d="M57.442 15.57C58.7312 15.57 59.7625 16.3633 59.7625 18.6442C59.7625 20.8853 58.7708 21.7382 57.442 21.7382C56.1132 21.7382 55.1215 20.8853 55.1215 18.6442C55.1215 16.3633 56.1528 15.57 57.442 15.57ZM57.442 13.0313C54.4868 13.0313 51.7895 14.7767 51.7895 18.6442C51.7895 22.5117 54.4868 24.2768 57.442 24.2768C60.3972 24.2768 63.0945 22.5117 63.0945 18.6442C63.0945 14.7767 60.3972 13.0313 57.442 13.0313Z" fill="white"/>
<path d="M69.3784 13.0313C66.1456 13.0313 63.9243 15.2328 63.9243 18.6243C63.9243 22.0158 65.8679 24.2768 69.3784 24.2768C71.5204 24.2768 74.0789 23.2653 74.8128 20.092H71.7584C71.5204 21.1035 70.7866 21.7382 69.5768 21.7382C68.4066 21.7382 67.2563 20.9647 67.2563 18.6442C67.2563 16.3633 68.4066 15.57 69.5768 15.57C70.5486 15.57 71.3221 16.0063 71.6196 17.2558H74.6739C74.0392 14.0428 71.5998 13.0313 69.3784 13.0313Z" fill="white"/>
<path d="M82.5022 17.355C78.357 17.6723 75.4019 18.5252 75.4019 21.1432C75.4019 23.0868 77.0679 24.2768 79.0909 24.2768C80.618 24.2768 81.8874 23.8603 82.6807 22.7298L82.7204 24.019H85.9334C85.7747 23.3447 85.6954 22.0952 85.6954 20.925V19.8143L85.735 17.4938C85.7945 14.261 84.0492 13.0115 80.975 13.0115C77.8017 13.0115 75.8977 14.7965 75.739 16.7997H78.7934C78.9322 15.7683 79.6462 15.2328 80.6974 15.2328C81.8874 15.2328 82.5022 15.6692 82.5022 16.9385V17.355ZM82.5815 19.5367C82.5815 21.5002 81.5899 22.0555 80.2809 22.0555C79.428 22.0555 78.7735 21.5993 78.7735 20.9052C78.7735 19.7548 80.3007 19.497 82.5815 19.2788V19.5367Z" fill="white"/>
<path d="M90.687 9.63983H87.4145V24.019H90.687V9.63983Z" fill="white"/>
<path d="M92.7735 9.63983V24.019H96.165V19.0408H98.307C102.036 19.0408 104.832 18.1087 104.832 14.3205C104.832 10.5522 102.036 9.63983 98.307 9.63983H92.7735ZM98.4062 12.4958C99.9929 12.4958 101.242 12.8132 101.242 14.3205C101.242 15.8278 99.9929 16.1848 98.4062 16.1848H96.165V12.4958H98.4062Z" fill="white"/>
<path d="M110.581 15.57C111.871 15.57 112.902 16.3633 112.902 18.6442C112.902 20.8853 111.91 21.7382 110.581 21.7382C109.253 21.7382 108.261 20.8853 108.261 18.6442C108.261 16.3633 109.292 15.57 110.581 15.57ZM110.581 13.0313C107.626 13.0313 104.929 14.7767 104.929 18.6442C104.929 22.5117 107.626 24.2768 110.581 24.2768C113.537 24.2768 116.234 22.5117 116.234 18.6442C116.234 14.7767 113.537 13.0313 110.581 13.0313Z" fill="white"/>
<path d="M117.543 13.3487V24.019H120.836V13.3487H117.543ZM117.543 9.63983V12.2578H120.816V9.63983H117.543Z" fill="white"/>
<path d="M126.055 13.3487H122.783V24.019H126.055V18.545C126.055 16.5617 126.631 15.6493 128.039 15.6493C129.625 15.6493 129.685 16.8988 129.685 18.426V24.019H132.957V17.6128C132.957 14.7172 132.105 13.1107 129.368 13.1107C127.682 13.1107 126.531 13.9635 126.055 14.7568V13.3487Z" fill="white"/>
<path d="M135.22 13.3487H133.534V15.6692H135.22V21.0242C135.22 23.5033 136.113 24.019 138.751 24.019H140.833V21.6588H139.901C138.81 21.6588 138.493 21.4605 138.493 20.449V15.6692H140.833V13.3487H138.493V10.4332H135.22V13.3487Z" fill="white"/>
</svg>
